<?xml version="1.0" standalone="no"?>
<!DOCTYPE svg PUBLIC "-//W3C//DTD SVG 20010904//EN"
 "http://www.w3.org/TR/2001/REC-SVG-20010904/DTD/svg10.dtd">
<svg version="1.0" xmlns="http://www.w3.org/2000/svg"
 width="202.000000pt" height="250.000000pt" viewBox="0 0 202.000000 250.000000"
 preserveAspectRatio="xMidYMid meet">

<g transform="translate(0.000000,250.000000) scale(0.100000,-0.100000)"
fill="#000000" stroke="none">
<path d="M140 2421 c-51 -6 -55 -8 -61 -36 -10 -48 -10 -2268 0 -2284 16 -25
252 -32 1017 -29 577 2 726 6 736 16 10 10 14 199 19 940 4 510 10 938 15 952
4 13 22 44 40 68 84 109 66 256 -41 337 l-35 27 -282 9 c-314 9 -1322 9 -1408
0z m1293 -138 c37 -3 67 -9 67 -12 0 -4 -99 -134 -220 -290 -121 -155 -220
-286 -220 -291 0 -10 199 -182 311 -268 15 -11 36 10 170 173 91 110 157 181
162 176 5 -5 7 -263 4 -618 -5 -660 -7 -691 -62 -791 -30 -56 -84 -95 -165
-120 -48 -15 -108 -17 -505 -17 -437 0 -452 1 -520 22 -121 38 -168 94 -206
241 -31 121 -39 347 -39 1099 l0 692 108 4 c215 6 1049 7 1115 0z"/>
<path d="M406 1941 c-32 -7 -40 -19 -27 -40 11 -17 228 -28 281 -14 37 10 52
39 28 54 -15 10 -238 10 -282 0z"/>
<path d="M381 1786 c-15 -18 -5 -43 22 -50 80 -21 179 11 148 48 -18 21 -153
23 -170 2z"/>
<path d="M902 1667 c-13 -13 -22 -36 -22 -53 0 -27 18 -46 148 -156 232 -196
275 -228 311 -228 57 0 100 63 69 102 -17 21 -121 109 -292 246 -150 121 -175
131 -214 89z"/>
<path d="M383 1649 c-17 -17 -16 -24 3 -43 12 -13 40 -16 139 -16 127 0 175 9
175 34 0 21 -32 27 -175 33 -100 4 -133 2 -142 -8z"/>
<path d="M405 1471 c-12 -5 -27 -16 -34 -25 -11 -13 -10 -17 14 -26 32 -12
325 -13 344 -1 21 13 7 37 -26 45 -50 11 -277 17 -298 7z"/>
<path d="M854 1393 c-82 -77 -106 -116 -113 -180 l-6 -57 -130 -59 c-142 -64
-181 -93 -195 -147 -5 -19 -18 -147 -30 -285 -11 -137 -23 -271 -27 -297 -4
-34 -2 -48 7 -48 24 0 516 272 548 303 44 42 52 79 52 233 0 145 1 148 64 157
21 4 50 17 64 29 39 36 112 140 112 159 0 30 -243 239 -278 239 -10 0 -41 -21
-68 -47z m-26 -393 c2 -25 1 -99 -3 -165 l-7 -120 -61 -36 c-34 -20 -98 -56
-142 -80 l-80 -43 19 29 c54 85 110 157 140 180 43 33 50 52 31 81 -30 46
-105 20 -105 -36 0 -27 -57 -130 -91 -165 -19 -19 -19 -19 -19 12 0 17 5 77
11 134 8 84 14 109 32 127 27 29 234 134 256 130 11 -2 17 -17 19 -48z"/>
</g>
</svg>
