<?xml version="1.0" standalone="no"?>
<!DOCTYPE svg PUBLIC "-//W3C//DTD SVG 20010904//EN"
 "http://www.w3.org/TR/2001/REC-SVG-20010904/DTD/svg10.dtd">
<svg version="1.0" xmlns="http://www.w3.org/2000/svg"
 width="250.000000pt" height="197.000000pt" viewBox="0 0 250.000000 197.000000"
 preserveAspectRatio="xMidYMid meet">

<g transform="translate(0.000000,197.000000) scale(0.100000,-0.100000)"
fill="#000000" stroke="none">
<path d="M590 1919 c-356 -29 -472 -104 -525 -339 -15 -62 -18 -147 -22 -499
-3 -276 -1 -469 6 -553 32 -359 133 -446 556 -477 178 -14 1164 -14 1314 -1
357 32 469 110 519 363 25 124 24 1000 -1 1133 -31 171 -78 244 -190 298 -90
44 -180 62 -375 75 -179 13 -1128 12 -1282 0z m385 -239 c12 -40 -10 -11 -30
40 -27 71 -28 78 -2 30 14 -25 28 -56 32 -70z m-88 -132 c-8 -23 -76 60 -91
110 -7 26 -11 51 -9 55 7 12 106 -151 100 -165z m108 -213 c157 -175 245 -281
245 -297 0 -28 -14 -28 -43 -1 l-30 28 7 -30 c4 -16 10 -41 12 -55 5 -24 5
-25 -11 -5 -9 11 -23 29 -31 40 -14 19 -15 18 -9 -12 3 -18 8 -46 11 -63 10
-47 -12 -36 -46 23 -44 74 -280 547 -280 560 0 6 17 -9 38 -33 20 -24 82 -94
137 -155z m595 -104 c-77 -154 -149 -290 -160 -303 -40 -48 -20 13 55 169 41
86 74 158 72 160 -10 10 -366 -409 -416 -490 -12 -20 -27 -35 -32 -32 -4 3
-16 -11 -24 -32 -18 -43 -60 -91 -90 -103 -19 -8 -19 -9 -1 -9 10 -1 33 8 51
19 45 28 231 248 358 424 31 43 57 74 57 69 0 -14 -88 -159 -143 -235 -72
-101 -182 -222 -237 -263 -56 -41 -39 -39 -220 -20 -48 6 -62 3 -110 -22 -36
-18 -65 -43 -85 -71 -27 -39 -30 -52 -30 -116 0 -62 4 -78 27 -113 22 -33 24
-42 13 -47 -38 -14 -84 82 -85 175 0 109 61 203 164 250 51 23 90 24 171 2 71
-19 83 -15 112 41 20 38 292 388 399 512 181 210 289 330 292 323 2 -4 -60
-134 -138 -288z m-151 -435 c33 -41 67 -91 75 -110 21 -51 50 -61 116 -42 73
22 116 20 175 -8 55 -25 103 -74 137 -139 29 -56 31 -166 4 -217 -43 -81 -93
-113 -181 -114 -145 -2 -281 129 -303 291 -11 83 -8 93 28 80 24 -9 27 -14 18
-30 -12 -24 -3 -88 18 -129 21 -41 24 -33 11 30 -8 38 -8 55 0 63 18 18 31 2
38 -44 3 -23 11 -56 16 -74 12 -37 77 -100 114 -109 72 -18 153 35 175 117 7
24 15 39 17 32 2 -6 -1 -31 -7 -54 -11 -40 -49 -87 -95 -117 -18 -12 -17 -12
10 -7 132 26 157 226 41 322 -64 52 -126 63 -221 38 -73 -19 -105 -11 -159 36
-24 22 -47 39 -50 39 -3 0 -6 -13 -6 -30 0 -16 -4 -30 -8 -30 -12 0 -132 126
-132 139 0 26 22 17 56 -24 20 -25 39 -44 41 -41 2 2 -7 31 -21 65 -14 33 -26
64 -26 68 0 11 58 -48 113 -116 52 -63 90 -91 124 -91 16 1 16 2 -2 12 -38 20
-75 61 -85 94 -6 18 -17 31 -23 29 -13 -4 -87 107 -87 130 0 29 19 14 79 -59z
m-429 -405 c0 -5 -5 -22 -11 -38 -9 -25 -11 -26 -20 -10 -13 22 -2 57 17 57 8
0 14 -4 14 -9z m-302 -103 c59 -64 139 -61 213 9 40 38 48 41 44 22 -15 -79
-156 -128 -229 -79 -35 22 -76 86 -75 115 0 14 3 12 11 -10 6 -16 22 -42 36
-57z"/>
</g>
</svg>
