<?xml version="1.0" standalone="no"?>
<!DOCTYPE svg PUBLIC "-//W3C//DTD SVG 20010904//EN"
 "http://www.w3.org/TR/2001/REC-SVG-20010904/DTD/svg10.dtd">
<svg version="1.0" xmlns="http://www.w3.org/2000/svg"
 width="250.000000pt" height="219.000000pt" viewBox="0 0 250.000000 219.000000"
 preserveAspectRatio="xMidYMid meet">

<g transform="translate(0.000000,219.000000) scale(0.100000,-0.100000)"
fill="#000000" stroke="none">
<path d="M1205 2132 c-6 -4 -17 -18 -25 -31 -14 -21 -22 -23 -105 -23 -87 0
-125 -9 -125 -28 0 -6 9 -6 25 0 16 6 25 6 25 0 0 -6 10 -8 23 -6 12 3 22 5
22 6 0 1 9 3 20 5 20 4 20 4 1 -11 -11 -8 -14 -14 -8 -14 21 0 13 -15 -19 -33
-18 -10 -29 -20 -26 -24 4 -3 13 0 22 7 8 7 15 9 15 5 0 -3 12 3 26 14 15 12
31 21 37 21 5 0 29 16 53 35 23 19 47 35 52 35 16 0 43 30 37 41 -7 11 -36 12
-50 1z"/>
<path d="M1018 2123 c12 -2 32 -2 45 0 12 2 2 4 -23 4 -25 0 -35 -2 -22 -4z"/>
<path d="M1330 2112 c0 -9 59 -32 81 -31 8 0 4 4 -9 10 -13 5 -20 13 -17 19 4
6 -6 10 -24 10 -17 0 -31 -4 -31 -8z"/>
<path d="M852 2068 c-8 -8 -9 -15 0 -25 8 -11 7 -12 -6 -7 -12 5 -16 0 -16
-17 0 -17 3 -20 11 -12 6 6 18 9 25 6 15 -6 44 13 44 28 0 5 -7 9 -16 9 -10 0
-14 6 -10 15 6 18 -15 20 -32 3z"/>
<path d="M1480 2071 c0 -5 10 -7 23 -4 21 4 21 4 2 -8 -11 -7 -27 -22 -37 -33
-17 -21 -17 -21 -15 9 2 30 2 30 -53 30 -46 0 -65 -6 -108 -34 -29 -18 -50
-37 -47 -41 3 -5 -11 -14 -30 -20 -19 -6 -33 -16 -29 -21 3 -5 -6 -13 -20 -19
-23 -8 -56 -50 -40 -50 18 0 -32 -40 -56 -45 -16 -3 -34 -12 -40 -20 -9 -11
-4 -12 25 -5 26 6 35 5 35 -5 0 -8 -5 -17 -12 -21 -8 -5 -6 -11 6 -19 14 -11
15 -14 1 -25 -9 -7 -19 -10 -22 -6 -4 4 -1 11 6 15 7 5 9 11 5 14 -13 8 -64
-4 -64 -15 0 -5 4 -7 9 -3 23 14 17 -15 -9 -43 -32 -36 -57 -44 -41 -13 9 16
7 18 -17 13 -15 -2 -58 -19 -96 -38 -38 -19 -71 -33 -73 -30 -2 2 19 14 46 27
28 12 51 27 51 31 0 5 -4 6 -10 3 -5 -3 -10 -2 -10 4 0 15 23 26 28 13 7 -23
92 31 92 59 0 5 -9 9 -20 9 -15 0 -19 6 -17 23 3 15 15 26 42 35 22 7 45 18
54 25 11 9 15 9 18 -1 3 -6 9 -9 15 -6 6 4 5 10 -3 15 -11 7 -9 10 9 15 12 4
22 10 22 15 0 12 -11 11 -40 -6 -52 -30 -64 -15 -14 17 27 18 52 31 55 30 4
-1 9 8 12 19 4 16 2 19 -11 14 -9 -4 -39 -12 -67 -17 -27 -5 -58 -14 -67 -19
-12 -7 -18 -6 -18 1 0 6 -12 2 -26 -9 -14 -11 -41 -23 -60 -27 -46 -9 -98 -67
-89 -101 3 -14 2 -22 -3 -19 -6 3 -12 -3 -15 -14 -3 -12 0 -20 8 -20 17 0 38
26 33 42 -5 15 53 38 97 38 27 0 25 -3 -31 -35 -43 -24 -67 -45 -78 -69 -11
-24 -21 -33 -31 -30 -8 4 -18 -1 -21 -10 -6 -16 -104 -71 -104 -58 0 4 13 16
29 27 17 11 28 21 26 24 -12 12 -135 -95 -135 -118 0 -7 4 -9 10 -6 5 3 10 2
10 -3 0 -6 -11 -13 -25 -16 -13 -3 -37 -11 -52 -18 -15 -6 -34 -12 -42 -12 -8
-1 -17 -8 -19 -16 -5 -13 -3 -13 13 0 16 14 17 13 12 -5 -4 -11 -3 -26 2 -33
7 -11 11 -11 22 1 8 7 20 12 27 9 7 -2 12 0 11 5 -3 17 14 52 27 57 12 5 12 2
3 -15 -6 -12 -9 -29 -6 -39 6 -24 -17 -43 -70 -59 -23 -6 -50 -22 -60 -34 -11
-13 -26 -21 -37 -19 -10 2 -23 -3 -28 -12 -11 -19 -44 -21 -51 -3 -2 7 -10 1
-17 -15 -15 -32 -7 -60 15 -52 12 5 14 2 8 -12 -7 -18 -6 -18 20 -1 15 10 27
13 27 7 0 -6 5 -8 12 -4 7 4 8 3 4 -5 -4 -6 -11 -9 -16 -6 -4 3 -10 0 -12 -6
-2 -7 -14 -13 -25 -14 -12 0 -29 -8 -39 -16 -16 -12 -17 -12 -11 4 4 11 3 16
-3 12 -6 -3 -10 -13 -10 -21 0 -8 -6 -14 -14 -14 -19 0 -40 -26 -26 -35 7 -4
7 -12 0 -24 -5 -10 -7 -21 -3 -24 3 -3 -1 -13 -10 -21 -8 -8 -17 -13 -20 -10
-3 3 -4 -1 -3 -10 4 -28 16 -30 43 -5 14 13 23 18 19 12 -4 -7 -2 -21 3 -32 9
-15 7 -20 -9 -24 -11 -3 -20 -10 -20 -17 0 -6 5 -8 12 -4 8 5 9 2 5 -9 -3 -10
-3 -17 1 -17 4 0 16 -14 26 -31 13 -23 15 -34 7 -42 -8 -8 -11 -6 -11 6 0 9
-4 17 -9 17 -5 0 -11 6 -14 12 -2 7 -3 5 -2 -4 2 -11 -3 -18 -13 -18 -14 0
-17 -10 -17 -48 l0 -47 42 -3 c24 -2 43 -7 43 -13 0 -9 -14 -13 -38 -10 -6 1
-12 -7 -12 -19 0 -11 5 -20 10 -20 6 0 10 -7 10 -15 0 -8 -4 -15 -10 -15 -21
0 -8 -16 22 -28 23 -8 34 -9 39 -1 5 8 8 8 13 0 4 -6 2 -11 -3 -11 -6 0 -11
-7 -11 -16 0 -9 -5 -12 -11 -8 -7 4 -10 1 -7 -6 6 -20 28 -24 28 -6 0 19 37
41 42 25 3 -8 10 -8 25 2 35 22 37 3 3 -29 -19 -18 -27 -33 -20 -37 6 -3 8
-10 5 -15 -3 -5 -1 -11 5 -15 5 -3 10 -2 10 4 0 6 7 8 15 5 8 -4 15 -10 15
-16 0 -5 -4 -6 -10 -3 -5 3 -10 1 -10 -4 0 -6 7 -11 15 -11 8 0 20 -9 27 -20
7 -11 19 -20 26 -20 7 0 10 -4 7 -10 -3 -5 -2 -10 2 -10 5 0 18 -7 29 -16 18
-15 18 -15 -3 -9 -20 5 -23 3 -21 -19 2 -18 11 -30 29 -38 15 -7 25 -16 23
-20 -3 -4 0 -8 5 -8 6 0 11 -6 11 -13 0 -7 18 -26 40 -43 44 -33 46 -36 25
-54 -22 -18 -18 -53 7 -78 55 -50 205 -90 482 -128 169 -22 211 -24 623 -24
483 0 537 5 643 58 30 15 63 39 74 54 18 25 18 28 3 52 -54 81 -311 138 -732
162 -194 11 -191 7 -99 84 203 169 335 392 374 631 45 282 -47 599 -234 806
-58 65 -168 153 -190 153 -9 0 -19 7 -22 15 -7 16 -54 21 -54 6z m-88 -101 c5
0 2 -7 -7 -16 -8 -9 -13 -24 -10 -33 3 -9 -6 -28 -19 -43 -14 -14 -23 -28 -20
-30 7 -7 -73 -68 -89 -68 -15 0 -32 -29 -22 -38 3 -3 11 0 17 6 7 7 17 12 22
12 6 0 -4 -14 -23 -30 -35 -31 -51 -37 -51 -20 0 21 -39 9 -63 -20 -36 -42
-42 -37 -14 12 18 33 31 44 60 51 46 11 50 32 5 23 l-33 -6 30 20 c41 29 95
51 106 44 13 -8 11 10 -3 25 -10 11 -10 14 0 18 6 3 12 10 12 17 0 6 14 20 30
29 18 11 30 26 30 39 0 14 5 18 16 14 9 -3 20 -6 26 -6z m-515 -187 c-4 -3 -2
-12 3 -18 8 -9 4 -11 -17 -7 -25 5 -25 6 -8 18 19 14 33 19 22 7z m-122 -113
c3 -5 1 -10 -4 -10 -6 0 -11 5 -11 10 0 6 2 10 4 10 3 0 8 -4 11 -10z m365
-35 c0 -54 -59 -121 -97 -112 -17 4 -16 5 2 12 36 14 65 47 71 82 6 33 24 46
24 18z m-376 -67 c-15 -13 -31 -23 -34 -23 -3 0 -10 -3 -15 -7 -6 -4 -17 -3
-25 3 -8 5 -26 9 -40 10 -15 0 -4 6 27 13 29 7 62 20 75 29 35 23 46 2 12 -25z
m181 2 c-3 -5 -11 -10 -16 -10 -6 0 -7 5 -4 10 3 6 11 10 16 10 6 0 7 -4 4
-10z m-229 -135 c-17 -26 -74 -60 -84 -50 -3 3 16 25 44 49 50 45 69 45 40 1z
m-165 -58 c-10 -9 -11 -8 -5 6 3 10 9 15 12 12 3 -3 0 -11 -7 -18z m-174 -62
c0 -17 -13 -20 -21 -6 -4 5 0 12 6 14 7 3 13 6 14 6 0 1 1 -6 1 -14z m175 -17
c-9 -9 -15 -9 -24 0 -9 9 -7 12 12 12 19 0 21 -3 12 -12z m-30 -30 c-8 -8 -27
-14 -54 -17 -3 -1 -21 -13 -39 -28 -18 -15 -30 -21 -27 -13 7 22 78 68 106 68
15 0 20 -4 14 -10z m-125 -34 c-3 -3 -12 -4 -19 -1 -8 3 -5 6 6 6 11 1 17 -2
13 -5z m523 -24 c-24 -15 -36 -11 -14 4 10 8 21 12 24 10 2 -3 -2 -9 -10 -14z
m-60 -24 c0 -2 -11 -11 -25 -20 -14 -9 -25 -13 -25 -8 0 5 10 14 23 20 27 13
27 13 27 8z m-516 -28 c-3 -11 0 -18 8 -18 7 -1 1 -8 -14 -16 -16 -8 -28 -20
-28 -27 -1 -7 -6 -5 -13 5 -9 11 -18 14 -28 7 -21 -13 -29 -11 -29 7 0 8 4 13
9 10 5 -3 14 1 21 9 7 8 18 15 25 15 7 0 15 6 18 13 8 22 38 17 31 -5z m349
-14 c9 -9 -55 -60 -87 -68 -26 -6 -25 -4 18 34 47 40 57 45 69 34z m-243 -34
c0 -5 -5 -10 -11 -10 -5 0 -7 5 -4 10 3 6 8 10 11 10 2 0 4 -4 4 -10z m-160
-20 c0 -5 -4 -10 -10 -10 -5 0 -10 5 -10 10 0 6 5 10 10 10 6 0 10 -4 10 -10z
m203 -9 c3 -14 0 -17 -14 -14 -15 4 -17 8 -8 19 15 18 16 18 22 -5z m-68 -440
c-3 -6 -11 -11 -17 -11 -6 0 -6 6 2 15 14 17 26 13 15 -4z"/>
<path d="M1249 2053 c-12 -16 -12 -17 1 -7 8 6 22 14 30 17 13 5 12 6 -1 6 -9
1 -23 -7 -30 -16z"/>
<path d="M800 2029 c0 -5 5 -7 10 -4 6 3 10 8 10 11 0 2 -4 4 -10 4 -5 0 -10
-5 -10 -11z"/>
<path d="M1165 2029 c-4 -6 -5 -12 -2 -15 2 -3 7 2 10 11 7 17 1 20 -8 4z"/>
<path d="M713 2012 c-37 -17 -43 -32 -14 -32 20 0 51 25 51 41 0 5 -1 8 -2 8
-2 -1 -18 -9 -35 -17z"/>
<path d="M966 1985 c-11 -8 -15 -15 -10 -15 6 0 19 7 30 15 10 8 15 14 9 14
-5 0 -19 -6 -29 -14z"/>
<path d="M1135 1970 c-3 -5 -2 -10 4 -10 5 0 13 5 16 10 3 6 2 10 -4 10 -5 0
-13 -4 -16 -10z"/>
<path d="M870 1929 c0 -5 5 -7 10 -4 6 3 10 8 10 11 0 2 -4 4 -10 4 -5 0 -10
-5 -10 -11z"/>
<path d="M336 1841 c-4 -7 -5 -15 -2 -18 9 -9 19 4 14 18 -4 11 -6 11 -12 0z"/>
<path d="M561 1816 c-7 -8 -14 -29 -16 -46 -4 -28 -2 -30 18 -24 12 3 22 7 23
8 0 0 10 18 22 39 l21 37 -28 0 c-16 0 -34 -6 -40 -14z"/>
<path d="M650 1819 c0 -5 5 -7 10 -4 6 3 10 8 10 11 0 2 -4 4 -10 4 -5 0 -10
-5 -10 -11z"/>
<path d="M310 1790 c-13 -8 -12 -10 3 -10 9 0 17 5 17 10 0 12 -1 12 -20 0z"/>
<path d="M750 1730 c-9 -6 -10 -10 -3 -10 6 0 15 5 18 10 8 12 4 12 -15 0z"/>
<path d="M570 1710 c0 -5 4 -10 9 -10 6 0 13 5 16 10 3 6 -1 10 -9 10 -9 0
-16 -4 -16 -10z"/>
<path d="M318 1654 c-16 -8 -28 -22 -28 -31 0 -13 3 -13 15 -3 10 8 15 9 15 2
0 -14 28 -5 52 16 36 30 -6 43 -54 16z"/>
<path d="M435 1599 c-4 -6 -5 -13 -2 -16 7 -7 27 6 27 18 0 12 -17 12 -25 -2z"/>
<path d="M507 1563 c-12 -11 -8 -23 9 -23 8 0 13 4 10 9 -4 5 0 12 6 14 9 4 8
6 -3 6 -9 1 -19 -2 -22 -6z"/>
<path d="M377 1470 c-9 -23 -21 -39 -25 -37 -4 3 -16 1 -27 -4 -18 -7 -19 -8
-1 -8 13 -1 17 -6 13 -21 -4 -17 -2 -18 14 -10 22 12 51 64 55 98 4 34 -9 26
-29 -18z"/>
<path d="M226 1411 c-3 -5 1 -11 9 -15 8 -3 15 -1 15 4 0 13 -18 22 -24 11z"/>
<path d="M315 1350 c4 -6 11 -8 16 -5 14 9 11 15 -7 15 -8 0 -12 -5 -9 -10z"/>
<path d="M237 1333 c-4 -3 -7 -11 -7 -17 0 -6 5 -5 12 2 6 6 9 14 7 17 -3 3
-9 2 -12 -2z"/>
<path d="M80 1209 c0 -7 -8 -18 -17 -26 -16 -13 -16 -13 5 -3 19 9 32 40 17
40 -3 0 -5 -5 -5 -11z"/>
<path d="M130 1139 c0 -6 7 -9 15 -5 8 3 19 -2 24 -12 6 -9 11 -12 11 -6 0 14
-21 34 -37 34 -7 0 -13 -5 -13 -11z"/>
<path d="M180 999 c0 -5 5 -7 10 -4 6 3 10 8 10 11 0 2 -4 4 -10 4 -5 0 -10
-5 -10 -11z"/>
<path d="M120 911 c0 -5 5 -13 10 -16 6 -3 10 -2 10 4 0 5 -4 13 -10 16 -5 3
-10 2 -10 -4z"/>
<path d="M355 562 c11 -13 29 -28 40 -34 21 -11 18 -8 -30 32 -29 24 -29 24
-10 2z"/>
</g>
</svg>
